<svg width="512" height="342" viewBox="0 0 512 342" fill="none" xmlns="http://www.w3.org/2000/svg">
<g clip-path="url(#clip0_1_2)">
<rect width="512" height="341" rx="16" fill="#191919"/>
<path fill-rule="evenodd" clip-rule="evenodd" d="M512 135.696V325C512 333.837 504.837 341 496 341H16C7.16344 341 0 333.837 0 325V119.15L82.5 61L512 135.696Z" fill="#272727"/>
<path d="M242.5 247H-4V295H194.5L242.5 247Z" fill="#FF5353"/>
<path d="M203.5 264H-43V312H155.5L203.5 264Z" fill="#FF8282"/>
<path d="M52.0455 171.636L50.9545 178.455H22.7273L23.8182 171.636H52.0455ZM23.5455 224L33.5 164.409C33.9545 161.409 35.0455 158.909 36.7727 156.909C38.5227 154.909 40.6023 153.409 43.0114 152.409C45.4432 151.409 47.9091 150.909 50.4091 150.909C52.3864 150.909 53.9659 151.068 55.1477 151.386C56.3523 151.705 57.2273 152 57.7727 152.273L54.3636 159.227C53.9545 159.091 53.4091 158.92 52.7273 158.716C52.0682 158.511 51.1591 158.409 50 158.409C47.3409 158.409 45.3182 159.08 43.9318 160.42C42.5455 161.761 41.6136 163.727 41.1364 166.318L31.5909 224H23.5455ZM54.5938 224L63.321 171.636H71.0938L69.7301 179.545H70.2756C71.6392 176.955 73.7188 174.852 76.5142 173.239C79.3097 171.625 82.2756 170.818 85.4119 170.818C86.0256 170.818 86.7642 170.83 87.6278 170.852C88.4915 170.852 89.1619 170.886 89.6392 170.955L88.2756 179.136C88.0028 179.068 87.3892 178.966 86.4347 178.83C85.4801 178.67 84.4574 178.591 83.3665 178.591C80.821 178.591 78.4688 179.125 76.3097 180.193C74.1506 181.239 72.3438 182.693 70.8892 184.557C69.4347 186.398 68.5028 188.5 68.0938 190.864L62.6392 224H54.5938ZM90.5 224L99.2273 171.636H107.273L98.5455 224H90.5ZM105.705 162.773C104.136 162.773 102.784 162.239 101.648 161.17C100.534 160.102 99.9773 158.818 99.9773 157.318C99.9773 155.818 100.534 154.534 101.648 153.466C102.784 152.398 104.136 151.864 105.705 151.864C107.273 151.864 108.614 152.398 109.727 153.466C110.864 154.534 111.432 155.818 111.432 157.318C111.432 158.818 110.864 160.102 109.727 161.17C108.614 162.239 107.273 162.773 105.705 162.773ZM135.099 225.091C130.077 225.091 125.929 223.977 122.656 221.75C119.384 219.5 117.099 216.364 115.804 212.341C114.509 208.295 114.304 203.591 115.19 198.227C116.077 192.864 117.838 188.136 120.474 184.045C123.111 179.932 126.395 176.727 130.327 174.432C134.259 172.114 138.577 170.955 143.281 170.955C146.009 170.955 148.634 171.409 151.156 172.318C153.679 173.227 155.861 174.705 157.702 176.75C159.543 178.773 160.827 181.455 161.554 184.795C162.281 188.136 162.236 192.25 161.418 197.136L160.872 200.545H120.509L121.599 193.591H153.781C154.304 190.636 154.168 188 153.372 185.682C152.599 183.364 151.247 181.534 149.315 180.193C147.406 178.852 144.986 178.182 142.054 178.182C139.031 178.182 136.213 179 133.599 180.636C130.986 182.25 128.804 184.295 127.054 186.773C125.304 189.227 124.213 191.727 123.781 194.273L122.827 200.273C122.145 204.614 122.247 208.068 123.134 210.636C124.043 213.205 125.622 215.057 127.872 216.193C130.122 217.307 132.94 217.864 136.327 217.864C138.486 217.864 140.474 217.568 142.293 216.977C144.111 216.364 145.736 215.455 147.168 214.25C148.599 213.023 149.804 211.5 150.781 209.682L158.145 211.864C156.895 214.5 155.134 216.818 152.861 218.818C150.611 220.795 147.974 222.341 144.952 223.455C141.952 224.545 138.668 225.091 135.099 225.091ZM182.571 192.5L177.389 224H169.344L178.071 171.636H185.844L184.48 179.818H185.162C186.798 177.159 189.014 175.023 191.81 173.409C194.605 171.773 197.98 170.955 201.935 170.955C205.435 170.955 208.389 171.682 210.798 173.136C213.23 174.568 214.946 176.75 215.946 179.682C216.969 182.591 217.116 186.273 216.389 190.727L210.798 224H202.753L208.207 191.273C208.889 187.182 208.355 183.977 206.605 181.659C204.878 179.341 202.139 178.182 198.389 178.182C195.798 178.182 193.401 178.739 191.196 179.852C189.014 180.966 187.162 182.591 185.639 184.727C184.139 186.864 183.116 189.455 182.571 192.5ZM245.205 225.091C240.818 225.091 237.136 223.989 234.159 221.784C231.182 219.557 229.08 216.42 227.852 212.375C226.648 208.307 226.5 203.5 227.409 197.955C228.341 192.455 230.08 187.682 232.625 183.636C235.193 179.591 238.341 176.466 242.068 174.261C245.795 172.057 249.864 170.955 254.273 170.955C257.682 170.955 260.284 171.523 262.08 172.659C263.898 173.773 265.216 175.045 266.034 176.477C266.852 177.886 267.477 179.045 267.909 179.955H268.591L272.886 154.182H280.932L269.341 224H261.568L262.932 215.955H261.977C261.227 216.909 260.182 218.114 258.841 219.568C257.5 221 255.727 222.284 253.523 223.42C251.341 224.534 248.568 225.091 245.205 225.091ZM247.182 217.864C250.409 217.864 253.295 217.023 255.841 215.341C258.409 213.636 260.545 211.284 262.25 208.284C263.955 205.261 265.136 201.773 265.795 197.818C266.455 193.909 266.432 190.489 265.727 187.557C265.023 184.602 263.67 182.307 261.67 180.67C259.67 179.011 257.023 178.182 253.727 178.182C250.341 178.182 247.398 179.057 244.898 180.807C242.398 182.534 240.364 184.886 238.795 187.864C237.227 190.818 236.136 194.136 235.523 197.818C234.909 201.545 234.898 204.932 235.489 207.977C236.08 211 237.33 213.409 239.239 215.205C241.17 216.977 243.818 217.864 247.182 217.864ZM329.034 183.364L321.398 185.409C321.125 184.182 320.648 183 319.966 181.864C319.307 180.705 318.284 179.761 316.898 179.034C315.534 178.284 313.67 177.909 311.307 177.909C308.102 177.909 305.318 178.648 302.955 180.125C300.591 181.58 299.239 183.432 298.898 185.682C298.557 187.659 299.011 189.239 300.261 190.42C301.511 191.602 303.602 192.568 306.534 193.318L314.034 195.227C318.534 196.386 321.739 198.125 323.648 200.443C325.58 202.739 326.239 205.727 325.625 209.409C325.125 212.409 323.818 215.091 321.705 217.455C319.591 219.818 316.886 221.682 313.591 223.045C310.295 224.409 306.625 225.091 302.58 225.091C297.193 225.091 292.943 223.932 289.83 221.614C286.716 219.273 285.057 215.886 284.852 211.455L292.898 209.545C293.102 212.341 294.102 214.455 295.898 215.886C297.716 217.295 300.261 218 303.534 218C307.284 218 310.409 217.205 312.909 215.614C315.409 214 316.83 212.068 317.17 209.818C317.511 207.977 317.148 206.443 316.08 205.216C315.034 203.989 313.216 203.068 310.625 202.455L302.307 200.409C297.67 199.25 294.42 197.477 292.557 195.091C290.716 192.705 290.102 189.705 290.716 186.091C291.216 183.136 292.489 180.523 294.534 178.25C296.602 175.977 299.193 174.193 302.307 172.898C305.443 171.602 308.852 170.955 312.534 170.955C317.716 170.955 321.591 172.091 324.159 174.364C326.727 176.614 328.352 179.614 329.034 183.364ZM370.872 190.318L369.645 197.818H339.099L340.327 190.318H370.872ZM379.438 224L388.165 171.636H395.938L394.574 179.545H395.119C396.483 176.955 398.562 174.852 401.358 173.239C404.153 171.625 407.119 170.818 410.256 170.818C410.869 170.818 411.608 170.83 412.472 170.852C413.335 170.852 414.006 170.886 414.483 170.955L413.119 179.136C412.847 179.068 412.233 178.966 411.278 178.83C410.324 178.67 409.301 178.591 408.21 178.591C405.665 178.591 403.313 179.125 401.153 180.193C398.994 181.239 397.188 182.693 395.733 184.557C394.278 186.398 393.347 188.5 392.938 190.864L387.483 224H379.438ZM459.253 183.364L451.616 185.409C451.344 184.182 450.866 183 450.185 181.864C449.526 180.705 448.503 179.761 447.116 179.034C445.753 178.284 443.889 177.909 441.526 177.909C438.321 177.909 435.537 178.648 433.173 180.125C430.81 181.58 429.457 183.432 429.116 185.682C428.776 187.659 429.23 189.239 430.48 190.42C431.73 191.602 433.821 192.568 436.753 193.318L444.253 195.227C448.753 196.386 451.957 198.125 453.866 200.443C455.798 202.739 456.457 205.727 455.844 209.409C455.344 212.409 454.037 215.091 451.923 217.455C449.81 219.818 447.105 221.682 443.81 223.045C440.514 224.409 436.844 225.091 432.798 225.091C427.412 225.091 423.162 223.932 420.048 221.614C416.935 219.273 415.276 215.886 415.071 211.455L423.116 209.545C423.321 212.341 424.321 214.455 426.116 215.886C427.935 217.295 430.48 218 433.753 218C437.503 218 440.628 217.205 443.128 215.614C445.628 214 447.048 212.068 447.389 209.818C447.73 207.977 447.366 206.443 446.298 205.216C445.253 203.989 443.435 203.068 440.844 202.455L432.526 200.409C427.889 199.25 424.639 197.477 422.776 195.091C420.935 192.705 420.321 189.705 420.935 186.091C421.435 183.136 422.707 180.523 424.753 178.25C426.821 175.977 429.412 174.193 432.526 172.898C435.662 171.602 439.071 170.955 442.753 170.955C447.935 170.955 451.81 172.091 454.378 174.364C456.946 176.614 458.571 179.614 459.253 183.364Z" fill="#F8F8F8"/>
</g>
<defs>
<clipPath id="clip0_1_2">
<rect width="512" height="341.34" fill="white"/>
</clipPath>
</defs>
</svg>
